<?xml version="1.0" encoding="UTF-8"?>
<svg version="1.1" xmlns="http://www.w3.org/2000/svg" width="1359" height="1157">
<path d="M0 0 C448.47 0 896.94 0 1359 0 C1359 381.81 1359 763.62 1359 1157 C910.53 1157 462.06 1157 0 1157 C0 775.19 0 393.38 0 0 Z " fill="#FDFDFD" transform="translate(0,0)"/>
<path d="M0 0 C2.07529929 0.97733426 4.17168396 1.91045167 6.28100586 2.81201172 C10.26256004 4.52261919 14.17009795 6.35519731 18.07983398 8.22241211 C19.66412299 8.975874 21.24843373 9.7292902 22.83276367 10.48266602 C23.6538562 10.87367493 24.47494873 11.26468384 25.32092285 11.6675415 C37.81276 17.61436566 50.31736592 23.52362704 62.91357422 29.24682617 C68.75598511 31.9079573 74.57488577 34.61523081 80.38061523 37.35522461 C81.49838348 37.88262741 81.49838348 37.88262741 82.63873291 38.42068481 C86.31256332 40.15516265 89.98477656 41.89297496 93.6550293 43.63500977 C100.42175654 46.83891853 107.20812598 49.9617243 114.08374023 52.92553711 C120.27793334 55.59779343 126.29906447 58.52838035 132.31518555 61.58422852 C139.0396667 64.96318626 145.93964703 67.98160741 152.80249023 71.06616211 C155.67579614 72.35972596 158.54824645 73.65516099 161.41967773 74.95288086 C162.09609314 75.25845917 162.77250854 75.56403748 163.46942139 75.87887573 C166.84379229 77.40989195 170.19245199 78.97325973 173.49780273 80.64819336 C176.92420373 82.37700389 180.39749571 83.87457749 183.92749023 85.37866211 C187.93522078 87.23762707 191.91531845 89.15482633 195.90014648 91.06225586 C196.70323242 91.44510742 197.50631836 91.82795898 198.33374023 92.22241211 C199.04852539 92.5646582 199.76331055 92.9069043 200.49975586 93.25952148 C202.38226601 94.12732383 204.28326562 94.95507204 206.19091797 95.76611328 C210.28406789 97.50990438 214.29331558 99.4161362 218.30639648 101.33569336 C219.95060115 102.11906148 221.59480692 102.90242727 223.23901367 103.68579102 C224.5228595 104.2984079 224.5228595 104.2984079 225.8326416 104.92340088 C238.92348763 111.16874892 252.02609101 117.38679538 265.17749023 123.50366211 C278.58183164 129.73868949 291.9525672 136.04340632 305.31692505 142.36361694 C308.13415608 143.69576655 310.95171846 145.02721433 313.76934814 146.35852051 C315.25128013 147.0590214 316.73299896 147.75997336 318.21453857 148.46130371 C320.49720494 149.54171014 322.7806381 150.62048156 325.06420898 151.69897461 C325.75005569 152.02404999 326.4359024 152.34912537 327.14253235 152.68405151 C330.21546533 154.13368312 333.29111623 155.53370236 336.41748047 156.86669922 C340.32274156 158.54891957 344.13392892 160.37820452 347.95092773 162.24975586 C349.06934555 162.7951577 349.06934555 162.7951577 350.21035767 163.35157776 C352.57517507 164.50486332 354.93895429 165.66025286 357.30249023 166.81616211 C370.52456508 173.29081128 370.52456508 173.29081128 383.92749023 179.37866211 C385.24421429 180.03694658 386.55721436 180.70277532 387.86499023 181.37866211 C390.72966536 182.83919529 393.60866868 184.05166926 396.61499023 185.19116211 C401.91230738 187.25122989 406.79619979 189.92417966 411.75170898 192.69506836 C415.07836961 194.45864859 418.46596759 195.89884273 421.92749023 197.37866211 C425.70154481 199.21878098 429.43348875 201.14287763 433.16772461 203.06225586 C436.72283775 204.86561812 440.22678087 206.54571985 443.98217773 207.89038086 C448.25702961 209.43175074 452.13468718 211.51395134 456.11499023 213.69116211 C463.86111416 217.85350493 471.7227475 221.73972674 479.6541748 225.53250122 C485.08599177 228.13253257 490.50550811 230.75821025 495.92749023 233.37866211 C497.34408936 234.05856201 497.34408936 234.05856201 498.78930664 234.75219727 C515.20637777 242.69029355 515.20637777 242.69029355 518.92749023 250.37866211 C519.3309668 251.1147168 519.73444336 251.85077148 520.15014648 252.60913086 C523.8782077 260.35591569 524.27131108 268.89768494 522.23217773 277.21459961 C518.57706264 287.1970568 512.39301907 294.38343093 502.77124023 298.90209961 C500.65938137 299.85865837 498.54459272 300.80876551 496.42749023 301.75366211 C494.07621197 302.82043192 491.72598951 303.88953122 489.37670898 304.96069336 C488.76836716 305.23769577 488.16002533 305.51469818 487.5332489 305.8000946 C480.71979449 308.91222442 473.9783686 312.1704138 467.23999023 315.44116211 C466.0092163 316.03788374 464.77842205 316.63456348 463.54760742 317.23120117 C461.14298071 318.39703587 458.73855958 319.56329172 456.33422852 320.72973633 C451.29001412 323.17123153 446.23478481 325.58940444 441.17749023 328.00366211 C430.13063399 333.27951324 419.0937162 338.5758972 408.05834961 343.87573242 C404.9996608 345.34401754 401.94026205 346.81081202 398.88061523 348.27709961 C387.34289251 353.80783964 375.81752226 359.36338198 364.30249023 364.94116211 C353.39254294 370.22576142 342.46911171 375.48082862 331.52905273 380.70288086 C326.54906598 383.08013311 321.57343453 385.4663706 316.59912109 387.85546875 C314.50385316 388.86173283 312.40831767 389.86743999 310.3125 390.87255859 C304.97284524 393.433529 299.63688389 396.00178407 294.30639648 398.58178711 C292.20093331 399.59742366 290.09546476 400.61304908 287.98999023 401.62866211 C287.00643555 402.1069043 286.02288086 402.58514648 285.00952148 403.07788086 C284.10717773 403.51229492 283.20483398 403.94670898 282.27514648 404.39428711 C281.48116455 404.77875 280.68718262 405.16321289 279.86914062 405.55932617 C277.92749023 406.37866211 277.92749023 406.37866211 275.92749023 406.37866211 C275.9320992 407.48834886 275.93670816 408.5980356 275.94145679 409.74134922 C276.05262287 436.78501286 276.13469874 463.82864675 276.18655109 490.87249088 C276.21229521 503.950884 276.24737331 517.02912586 276.3046875 530.10742188 C276.35463845 541.51099914 276.38680879 552.91446682 276.39793271 564.31815046 C276.40443161 570.35223839 276.41962695 576.38601292 276.45614052 582.42000008 C276.49028464 588.1089599 276.50050609 593.79747965 276.49302864 599.48653221 C276.49439498 601.56529259 276.50421674 603.64406895 276.52351761 605.72274017 C276.75556444 632.02194714 267.22463392 649.68664366 248.96533203 668.62402344 C242.10580702 675.59595361 234.90728946 681.73567029 226.92749023 687.37866211 C226.37577148 687.77472656 225.82405273 688.17079102 225.25561523 688.57885742 C199.44601487 706.97411732 169.92392133 719.59369798 139.92749023 729.37866211 C135.97428079 730.68722398 132.02214719 731.99568295 128.09155273 733.37084961 C87.4492585 747.50186268 43.82492354 752.91955258 1.14454651 756.20080566 C-0.52259059 756.33454655 -2.18868554 756.48137891 -3.85414124 756.63464355 C-12.87218482 757.4196308 -21.83854618 757.52526709 -30.88110352 757.51147461 C-32.46240758 757.5121502 -34.04371154 757.51312233 -35.62501526 757.51437378 C-38.91180425 757.51583576 -42.19856579 757.51374296 -45.48535156 757.5090332 C-49.68704856 757.50330366 -53.88868211 757.50664469 -58.09037685 757.51260567 C-61.34437028 757.51622392 -64.59834872 757.51506744 -67.85234261 757.51247787 C-69.40201894 757.51181382 -70.95169667 757.5126187 -72.50137138 757.51495743 C-74.66371135 757.51750845 -76.82594888 757.51361045 -78.98828125 757.50805664 C-80.82808815 757.50686325 -80.82808815 757.50686325 -82.70506287 757.50564575 C-85.92004058 757.3844116 -88.91188928 756.95352376 -92.07250977 756.37866211 C-94.60156792 756.22177179 -97.12367362 756.0923183 -99.65454102 755.98413086 C-109.76983287 755.46158271 -119.7387648 754.12141425 -129.76000977 752.69116211 C-130.69527496 752.5592749 -131.63054016 752.4273877 -132.59414673 752.29150391 C-149.2290845 749.9343501 -165.67821737 747.08321246 -182.07250977 743.37866211 C-183.61696777 743.03134033 -183.61696777 743.03134033 -185.19262695 742.67700195 C-234.32736974 731.43511224 -285.68668835 713.28671579 -326.07250977 682.37866211 C-326.9477832 681.71479492 -327.82305664 681.05092773 -328.72485352 680.36694336 C-339.39283717 672.05838737 -348.90937562 663.18419806 -357.07250977 652.37866211 C-357.7105957 651.54463867 -358.34868164 650.71061523 -359.00610352 649.85131836 C-367.00549859 638.96181926 -371.38297732 627.72948587 -371.35098267 614.21643066 C-371.35677507 613.32754796 -371.36256747 612.43866525 -371.3685354 611.5228467 C-371.38545749 608.56263836 -371.38840517 605.60258667 -371.39135742 602.64233398 C-371.40066097 600.51309836 -371.41083028 598.38386637 -371.42179871 596.25463867 C-371.44906456 590.48670902 -371.46423805 584.71880375 -371.47722673 578.95082664 C-371.49287217 572.91832055 -371.51965791 566.88586414 -371.54525757 560.85339355 C-371.59202029 549.43557082 -371.62877657 538.01773872 -371.66193044 526.59986925 C-371.7001695 513.59869115 -371.74957502 500.59756297 -371.7999146 487.59642696 C-371.9031972 460.85720902 -371.99246958 434.11795901 -372.07250977 407.37866211 C-378.6823013 404.1206986 -385.29476256 400.86819971 -391.90893555 397.61914062 C-394.14943389 396.51779997 -396.38936224 395.41529885 -398.62866211 394.31152344 C-410.5009288 388.4605341 -422.38029907 382.6670196 -434.49151611 377.3238678 C-442.15438169 373.94111116 -449.61366867 370.18559948 -457.07250977 366.37866211 C-459.05250977 365.38866211 -461.03250977 364.39866211 -463.07250977 363.37866211 C-462.74250977 405.94866211 -462.41250977 448.51866211 -462.07250977 492.37866211 C-458.77250977 493.69866211 -455.47250977 495.01866211 -452.07250977 496.37866211 C-449.27200193 498.32684148 -446.69099721 500.23197421 -444.07250977 502.37866211 C-443.22688477 502.95616211 -442.38125977 503.53366211 -441.51000977 504.12866211 C-434.92227146 510.20965131 -430.79891272 517.9254429 -428.07250977 526.37866211 C-427.73413086 527.4015332 -427.73413086 527.4015332 -427.38891602 528.44506836 C-423.57174671 542.31850438 -425.88857442 556.74381652 -432.51000977 569.31616211 C-434.09735276 572.02601868 -435.81218144 574.27112779 -437.94750977 576.56616211 C-440.3355307 579.15709371 -440.3355307 579.15709371 -440.13500977 582.12866211 C-439.2962831 584.69417896 -438.36726284 587.08541099 -437.32250977 589.56616211 C-432.6294522 601.02674472 -430.10545672 613.20674676 -428.19360352 625.40209961 C-428.02513412 626.46822983 -427.85666473 627.53436005 -427.68309021 628.63279724 C-425.49421841 642.76683664 -423.70594176 656.95517742 -421.92370605 671.14502335 C-421.63129315 673.47072215 -421.33729255 675.79621589 -421.04296875 678.12167358 C-417.76060299 704.08641812 -414.81486085 730.07298229 -412.29312134 756.12371826 C-411.96639338 759.46331275 -411.62682856 762.80160292 -411.28720093 766.13990784 C-409.71006818 782.58591639 -409.71006818 782.58591639 -414.52954102 788.89038086 C-418.90823007 793.11387587 -423.79444608 793.73418175 -429.57904053 793.65774536 C-434.10592732 793.15107046 -437.99852255 791.27759237 -442.11157227 789.40600586 C-443.03666595 789.00410538 -443.96175964 788.6022049 -444.91488647 788.18812561 C-448.84325368 786.48103833 -452.75446718 784.73612772 -456.66723633 782.99365234 C-459.53869196 781.7214975 -462.41839475 780.46960464 -465.29907227 779.21850586 C-466.17528229 778.81961655 -467.05149231 778.42072723 -467.95425415 778.00975037 C-474.75214538 775.06225713 -479.18133788 775.20959054 -486.12426758 777.85327148 C-487.59489387 778.4680022 -489.06189612 779.09145671 -490.52563477 779.72241211 C-491.30767273 780.05156616 -492.08971069 780.38072021 -492.89544678 780.71984863 C-495.37447853 781.76507943 -497.84854906 782.82149223 -500.32250977 783.87866211 C-502.81175557 784.93332132 -505.3019578 785.98569109 -507.79241943 787.03747559 C-509.33701689 787.6907823 -510.88071474 788.34622102 -512.42340088 789.00402832 C-520.20114863 792.3139088 -526.59705963 793.25442619 -535.07250977 792.37866211 C-538.40107863 790.8900356 -540.12956525 788.75681179 -542.18969727 785.74584961 C-543.53569049 782.13668193 -543.45482596 778.55661755 -543.44750977 774.75366211 C-543.44589844 773.8490625 -543.44428711 772.94446289 -543.44262695 772.01245117 C-543.22206436 758.86086592 -541.31540871 745.81437704 -539.63696289 732.78637695 C-538.83051922 726.5192215 -538.07505975 720.24595686 -537.31820679 713.97265625 C-537.07226971 711.93917728 -536.82422253 709.9059652 -536.57568359 707.87280273 C-535.41875129 698.38679285 -534.33247343 688.8938581 -533.26538086 679.39736938 C-531.85751075 666.88990385 -530.3889324 654.40383194 -528.46557617 641.96313477 C-528.02818593 639.08722598 -527.6192273 636.20781718 -527.20922852 633.32788086 C-524.781492 616.7353728 -521.8447706 599.96968823 -514.64672852 584.70068359 C-513.88658011 581.62680115 -514.65370011 580.15141989 -516.07250977 577.37866211 C-517.41852002 575.43821344 -517.41852002 575.43821344 -518.94750977 573.62866211 C-528.33211916 561.45155918 -529.22521433 547.19182107 -528.07250977 532.37866211 C-525.87302999 518.94513057 -518.07185103 507.29325221 -507.07250977 499.37866211 C-502.200938 496.3537867 -497.65350186 493.77391013 -492.07250977 492.37866211 C-491.74250977 444.85866211 -491.41250977 397.33866211 -491.07250977 348.37866211 C-492.72250977 348.04866211 -494.37250977 347.71866211 -496.07250977 347.37866211 C-498.04188538 346.58660889 -498.04188538 346.58660889 -499.95947266 345.63549805 C-501.05623573 345.09718102 -501.05623573 345.09718102 -502.17515564 344.54798889 C-502.95725906 344.1569548 -503.73936249 343.76592072 -504.54516602 343.36303711 C-505.78545311 342.75225563 -505.78545311 342.75225563 -507.05079651 342.12913513 C-508.82502642 341.25502375 -510.59803564 340.37843113 -512.36993408 339.49960327 C-517.03393054 337.18716577 -521.70745783 334.89417609 -526.38110352 332.60131836 C-527.30842285 332.14602249 -528.23574219 331.69072662 -529.19116211 331.22163391 C-536.6482923 327.56805584 -544.15055766 324.0302638 -551.69750977 320.56616211 C-561.7518945 315.94583134 -571.74054948 311.20439999 -581.69750977 306.37866211 C-582.3503595 306.06246918 -583.00320923 305.74627625 -583.67584229 305.42050171 C-586.72242323 303.94402368 -589.76631527 302.462467 -592.80712891 300.97412109 C-594.88500869 299.95887291 -596.96711463 298.95219595 -599.0546875 297.95703125 C-600.38028687 297.31689087 -600.38028687 297.31689087 -601.73266602 296.66381836 C-602.86393921 296.12446655 -602.86393921 296.12446655 -604.01806641 295.57421875 C-611.70595103 291.1003541 -615.83507285 282.69479933 -618.07250977 274.37866211 C-619.43340473 263.58700379 -617.41517255 255.11406346 -611.44750977 246.12866211 C-604.78287848 237.92477937 -593.80411977 234.2507557 -584.43969727 229.91772461 C-579.52521285 227.62149963 -574.67927116 225.1944175 -569.83250427 222.7598114 C-561.072956 218.36528718 -552.26775203 214.0640778 -543.46337891 209.76025391 C-540.51008589 208.31619933 -537.5578803 206.86993803 -534.60571289 205.42358398 C-509.1225756 192.95274916 -509.1225756 192.95274916 -499.61523438 188.90771484 C-495.9778933 187.3378253 -492.41151833 185.6498412 -488.85375977 183.90991211 C-488.19218872 183.5883313 -487.53061768 183.26675049 -486.84899902 182.9354248 C-484.75608385 181.91804063 -482.664172 180.89861948 -480.57250977 179.87866211 C-477.8129986 178.53304152 -475.05244752 177.18958844 -472.29125977 175.84741211 C-471.67126099 175.54420044 -471.05126221 175.24098877 -470.41247559 174.92858887 C-466.34782286 172.95312325 -462.22656081 171.15632699 -458.07250977 169.37866211 C-455.90548647 168.35399828 -453.74546595 167.31441665 -451.59204102 166.26147461 C-450.34835557 165.6554185 -449.10461965 165.04946595 -447.86083984 164.44360352 C-446.89061386 163.97002411 -446.89061386 163.97002411 -445.90078735 163.48687744 C-433.98728608 157.6759501 -422.02333375 151.99038986 -409.98779297 146.43579102 C-400.32308505 141.97161963 -390.69484666 137.43328794 -381.07250977 132.87866211 C-368.04797004 126.71580276 -354.99941383 120.60896064 -341.92407227 114.55444336 C-335.26877479 111.47250506 -328.62209896 108.37232805 -321.9770813 105.26831055 C-303.77628115 96.76649629 -285.55676464 88.30520028 -267.32641602 79.86694336 C-249.9766198 71.83521482 -232.63577909 63.78611452 -215.33081055 55.65820312 C-206.9638318 51.72905629 -198.585076 47.82623163 -190.19750977 43.94116211 C-179.71904573 39.08747197 -169.26696183 34.17997693 -158.82250977 29.25366211 C-149.26196737 24.74431925 -139.69202774 20.26127705 -130.07250977 15.87866211 C-120.03781712 11.30610345 -110.05073767 6.6353008 -100.07250977 1.94116211 C-98.96311035 1.41981689 -98.96311035 1.41981689 -97.83129883 0.88793945 C-95.70280986 -0.11266881 -93.57494208 -1.11457891 -91.44750977 -2.11743164 C-90.78178452 -2.43112198 -90.11605927 -2.74481232 -89.43016052 -3.06800842 C-86.08753507 -4.64867336 -82.77062864 -6.2660431 -79.48266602 -7.95727539 C-76.19044648 -9.56378801 -73.01444333 -10.75535786 -69.51000977 -11.80883789 C-68.4568457 -12.13239258 -67.40368164 -12.45594727 -66.31860352 -12.78930664 C-41.88539891 -19.05196919 -21.71142591 -10.54018804 0 0 Z " fill="#7E58F5" transform="translate(727.072509765625,166.621337890625)"/>
<path d="M0 0 C2.07529929 0.97733426 4.17168396 1.91045167 6.28100586 2.81201172 C10.26256004 4.52261919 14.17009795 6.35519731 18.07983398 8.22241211 C19.66412299 8.975874 21.24843373 9.7292902 22.83276367 10.48266602 C23.6538562 10.87367493 24.47494873 11.26468384 25.32092285 11.6675415 C37.81276 17.61436566 50.31736592 23.52362704 62.91357422 29.24682617 C68.75598511 31.9079573 74.57488577 34.61523081 80.38061523 37.35522461 C81.49838348 37.88262741 81.49838348 37.88262741 82.63873291 38.42068481 C86.31256332 40.15516265 89.98477656 41.89297496 93.6550293 43.63500977 C100.42175654 46.83891853 107.20812598 49.9617243 114.08374023 52.92553711 C120.27793334 55.59779343 126.29906447 58.52838035 132.31518555 61.58422852 C139.0396667 64.96318626 145.93964703 67.98160741 152.80249023 71.06616211 C155.67579614 72.35972596 158.54824645 73.65516099 161.41967773 74.95288086 C162.09609314 75.25845917 162.77250854 75.56403748 163.46942139 75.87887573 C166.84379229 77.40989195 170.19245199 78.97325973 173.49780273 80.64819336 C176.92420373 82.37700389 180.39749571 83.87457749 183.92749023 85.37866211 C187.93522078 87.23762707 191.91531845 89.15482633 195.90014648 91.06225586 C196.70323242 91.44510742 197.50631836 91.82795898 198.33374023 92.22241211 C199.04852539 92.5646582 199.76331055 92.9069043 200.49975586 93.25952148 C202.38226601 94.12732383 204.28326562 94.95507204 206.19091797 95.76611328 C210.28406789 97.50990438 214.29331558 99.4161362 218.30639648 101.33569336 C219.95060115 102.11906148 221.59480692 102.90242727 223.23901367 103.68579102 C224.5228595 104.2984079 224.5228595 104.2984079 225.8326416 104.92340088 C238.92348763 111.16874892 252.02609101 117.38679538 265.17749023 123.50366211 C278.58183164 129.73868949 291.9525672 136.04340632 305.31692505 142.36361694 C308.13415608 143.69576655 310.95171846 145.02721433 313.76934814 146.35852051 C315.25128013 147.0590214 316.73299896 147.75997336 318.21453857 148.46130371 C320.49720494 149.54171014 322.7806381 150.62048156 325.06420898 151.69897461 C325.75005569 152.02404999 326.4359024 152.34912537 327.14253235 152.68405151 C330.21546533 154.13368312 333.29111623 155.53370236 336.41748047 156.86669922 C340.32274156 158.54891957 344.13392892 160.37820452 347.95092773 162.24975586 C349.06934555 162.7951577 349.06934555 162.7951577 350.21035767 163.35157776 C352.57517507 164.50486332 354.93895429 165.66025286 357.30249023 166.81616211 C370.52456508 173.29081128 370.52456508 173.29081128 383.92749023 179.37866211 C385.24421429 180.03694658 386.55721436 180.70277532 387.86499023 181.37866211 C390.72966536 182.83919529 393.60866868 184.05166926 396.61499023 185.19116211 C401.91230738 187.25122989 406.79619979 189.92417966 411.75170898 192.69506836 C415.07836961 194.45864859 418.46596759 195.89884273 421.92749023 197.37866211 C425.70154481 199.21878098 429.43348875 201.14287763 433.16772461 203.06225586 C436.72283775 204.86561812 440.22678087 206.54571985 443.98217773 207.89038086 C448.25702961 209.43175074 452.13468718 211.51395134 456.11499023 213.69116211 C463.86111416 217.85350493 471.7227475 221.73972674 479.6541748 225.53250122 C485.08599177 228.13253257 490.50550811 230.75821025 495.92749023 233.37866211 C497.34408936 234.05856201 497.34408936 234.05856201 498.78930664 234.75219727 C515.20637777 242.69029355 515.20637777 242.69029355 518.92749023 250.37866211 C519.3309668 251.1147168 519.73444336 251.85077148 520.15014648 252.60913086 C523.8782077 260.35591569 524.27131108 268.89768494 522.23217773 277.21459961 C518.57706264 287.1970568 512.39301907 294.38343093 502.77124023 298.90209961 C500.65938137 299.85865837 498.54459272 300.80876551 496.42749023 301.75366211 C494.07621197 302.82043192 491.72598951 303.88953122 489.37670898 304.96069336 C488.76836716 305.23769577 488.16002533 305.51469818 487.5332489 305.8000946 C480.71979449 308.91222442 473.9783686 312.1704138 467.23999023 315.44116211 C466.0092163 316.03788374 464.77842205 316.63456348 463.54760742 317.23120117 C461.14298071 318.39703587 458.73855958 319.56329172 456.33422852 320.72973633 C451.29001412 323.17123153 446.23478481 325.58940444 441.17749023 328.00366211 C430.13063399 333.27951324 419.0937162 338.5758972 408.05834961 343.87573242 C404.9996608 345.34401754 401.94026205 346.81081202 398.88061523 348.27709961 C387.34289251 353.80783964 375.81752226 359.36338198 364.30249023 364.94116211 C353.39254294 370.22576142 342.46911171 375.48082862 331.52905273 380.70288086 C326.54906598 383.08013311 321.57343453 385.4663706 316.59912109 387.85546875 C314.50385316 388.86173283 312.40831767 389.86743999 310.3125 390.87255859 C304.97284524 393.433529 299.63688389 396.00178407 294.30639648 398.58178711 C292.20093331 399.59742366 290.09546476 400.61304908 287.98999023 401.62866211 C287.00643555 402.1069043 286.02288086 402.58514648 285.00952148 403.07788086 C284.10717773 403.51229492 283.20483398 403.94670898 282.27514648 404.39428711 C281.48116455 404.77875 280.68718262 405.16321289 279.86914062 405.55932617 C277.92749023 406.37866211 277.92749023 406.37866211 275.92749023 406.37866211 C275.9320992 407.48834886 275.93670816 408.5980356 275.94145679 409.74134922 C276.05262287 436.78501286 276.13469874 463.82864675 276.18655109 490.87249088 C276.21229521 503.950884 276.24737331 517.02912586 276.3046875 530.10742188 C276.35463845 541.51099914 276.38680879 552.91446682 276.39793271 564.31815046 C276.40443161 570.35223839 276.41962695 576.38601292 276.45614052 582.42000008 C276.49028464 588.1089599 276.50050609 593.79747965 276.49302864 599.48653221 C276.49439498 601.56529259 276.50421674 603.64406895 276.52351761 605.72274017 C276.75556444 632.02194714 267.22463392 649.68664366 248.96533203 668.62402344 C242.10580702 675.59595361 234.90728946 681.73567029 226.92749023 687.37866211 C226.37577148 687.77472656 225.82405273 688.17079102 225.25561523 688.57885742 C199.44601487 706.97411732 169.92392133 719.59369798 139.92749023 729.37866211 C135.97428079 730.68722398 132.02214719 731.99568295 128.09155273 733.37084961 C87.4492585 747.50186268 43.82492354 752.91955258 1.14454651 756.20080566 C-0.52259059 756.33454655 -2.18868554 756.48137891 -3.85414124 756.63464355 C-12.87218482 757.4196308 -21.83854618 757.52526709 -30.88110352 757.51147461 C-32.46240758 757.5121502 -34.04371154 757.51312233 -35.62501526 757.51437378 C-38.91180425 757.51583576 -42.19856579 757.51374296 -45.48535156 757.5090332 C-49.68704856 757.50330366 -53.88868211 757.50664469 -58.09037685 757.51260567 C-61.34437028 757.51622392 -64.59834872 757.51506744 -67.85234261 757.51247787 C-69.40201894 757.51181382 -70.95169667 757.5126187 -72.50137138 757.51495743 C-74.66371135 757.51750845 -76.82594888 757.51361045 -78.98828125 757.50805664 C-80.82808815 757.50686325 -80.82808815 757.50686325 -82.70506287 757.50564575 C-85.92004058 757.3844116 -88.91188928 756.95352376 -92.07250977 756.37866211 C-94.60156792 756.22177179 -97.12367362 756.0923183 -99.65454102 755.98413086 C-109.76983287 755.46158271 -119.7387648 754.12141425 -129.76000977 752.69116211 C-130.69527496 752.5592749 -131.63054016 752.4273877 -132.59414673 752.29150391 C-149.2290845 749.9343501 -165.67821737 747.08321246 -182.07250977 743.37866211 C-183.61696777 743.03134033 -183.61696777 743.03134033 -185.19262695 742.67700195 C-234.32736974 731.43511224 -285.68668835 713.28671579 -326.07250977 682.37866211 C-326.9477832 681.71479492 -327.82305664 681.05092773 -328.72485352 680.36694336 C-339.39283717 672.05838737 -348.90937562 663.18419806 -357.07250977 652.37866211 C-357.7105957 651.54463867 -358.34868164 650.71061523 -359.00610352 649.85131836 C-367.00549859 638.96181926 -371.38297732 627.72948587 -371.35098267 614.21643066 C-371.35677507 613.32754796 -371.36256747 612.43866525 -371.3685354 611.5228467 C-371.38545749 608.56263836 -371.38840517 605.60258667 -371.39135742 602.64233398 C-371.40066097 600.51309836 -371.41083028 598.38386637 -371.42179871 596.25463867 C-371.44906456 590.48670902 -371.46423805 584.71880375 -371.47722673 578.95082664 C-371.49287217 572.91832055 -371.51965791 566.88586414 -371.54525757 560.85339355 C-371.59202029 549.43557082 -371.62877657 538.01773872 -371.66193044 526.59986925 C-371.7001695 513.59869115 -371.74957502 500.59756297 -371.7999146 487.59642696 C-371.9031972 460.85720902 -371.99246958 434.11795901 -372.07250977 407.37866211 C-378.6823013 404.1206986 -385.29476256 400.86819971 -391.90893555 397.61914062 C-394.14943389 396.51779997 -396.38936224 395.41529885 -398.62866211 394.31152344 C-410.5009288 388.4605341 -422.38029907 382.6670196 -434.49151611 377.3238678 C-442.15438169 373.94111116 -449.61366867 370.18559948 -457.07250977 366.37866211 C-459.05250977 365.38866211 -461.03250977 364.39866211 -463.07250977 363.37866211 C-462.74250977 405.94866211 -462.41250977 448.51866211 -462.07250977 492.37866211 C-458.77250977 493.69866211 -455.47250977 495.01866211 -452.07250977 496.37866211 C-449.27200193 498.32684148 -446.69099721 500.23197421 -444.07250977 502.37866211 C-443.22688477 502.95616211 -442.38125977 503.53366211 -441.51000977 504.12866211 C-434.92227146 510.20965131 -430.79891272 517.9254429 -428.07250977 526.37866211 C-427.73413086 527.4015332 -427.73413086 527.4015332 -427.38891602 528.44506836 C-423.57174671 542.31850438 -425.88857442 556.74381652 -432.51000977 569.31616211 C-434.09735276 572.02601868 -435.81218144 574.27112779 -437.94750977 576.56616211 C-440.3355307 579.15709371 -440.3355307 579.15709371 -440.13500977 582.12866211 C-439.2962831 584.69417896 -438.36726284 587.08541099 -437.32250977 589.56616211 C-432.6294522 601.02674472 -430.10545672 613.20674676 -428.19360352 625.40209961 C-428.02513412 626.46822983 -427.85666473 627.53436005 -427.68309021 628.63279724 C-425.49421841 642.76683664 -423.70594176 656.95517742 -421.92370605 671.14502335 C-421.63129315 673.47072215 -421.33729255 675.79621589 -421.04296875 678.12167358 C-417.76060299 704.08641812 -414.81486085 730.07298229 -412.29312134 756.12371826 C-411.96639338 759.46331275 -411.62682856 762.80160292 -411.28720093 766.13990784 C-409.71006818 782.58591639 -409.71006818 782.58591639 -414.52954102 788.89038086 C-418.90823007 793.11387587 -423.79444608 793.73418175 -429.57904053 793.65774536 C-434.10592732 793.15107046 -437.99852255 791.27759237 -442.11157227 789.40600586 C-443.03666595 789.00410538 -443.96175964 788.6022049 -444.91488647 788.18812561 C-448.84325368 786.48103833 -452.75446718 784.73612772 -456.66723633 782.99365234 C-459.53869196 781.7214975 -462.41839475 780.46960464 -465.29907227 779.21850586 C-466.17528229 778.81961655 -467.05149231 778.42072723 -467.95425415 778.00975037 C-474.75214538 775.06225713 -479.18133788 775.20959054 -486.12426758 777.85327148 C-487.59489387 778.4680022 -489.06189612 779.09145671 -490.52563477 779.72241211 C-491.30767273 780.05156616 -492.08971069 780.38072021 -492.89544678 780.71984863 C-495.37447853 781.76507943 -497.84854906 782.82149223 -500.32250977 783.87866211 C-502.81175557 784.93332132 -505.3019578 785.98569109 -507.79241943 787.03747559 C-509.33701689 787.6907823 -510.88071474 788.34622102 -512.42340088 789.00402832 C-520.20114863 792.3139088 -526.59705963 793.25442619 -535.07250977 792.37866211 C-538.40107863 790.8900356 -540.12956525 788.75681179 -542.18969727 785.74584961 C-543.53569049 782.13668193 -543.45482596 778.55661755 -543.44750977 774.75366211 C-543.44589844 773.8490625 -543.44428711 772.94446289 -543.44262695 772.01245117 C-543.22206436 758.86086592 -541.31540871 745.81437704 -539.63696289 732.78637695 C-538.83051922 726.5192215 -538.07505975 720.24595686 -537.31820679 713.97265625 C-537.07226971 711.93917728 -536.82422253 709.9059652 -536.57568359 707.87280273 C-535.41875129 698.38679285 -534.33247343 688.8938581 -533.26538086 679.39736938 C-531.85751075 666.88990385 -530.3889324 654.40383194 -528.46557617 641.96313477 C-528.02818593 639.08722598 -527.6192273 636.20781718 -527.20922852 633.32788086 C-524.781492 616.7353728 -521.8447706 599.96968823 -514.64672852 584.70068359 C-513.88658011 581.62680115 -514.65370011 580.15141989 -516.07250977 577.37866211 C-517.41852002 575.43821344 -517.41852002 575.43821344 -518.94750977 573.62866211 C-528.33211916 561.45155918 -529.22521433 547.19182107 -528.07250977 532.37866211 C-525.87302999 518.94513057 -518.07185103 507.29325221 -507.07250977 499.37866211 C-502.200938 496.3537867 -497.65350186 493.77391013 -492.07250977 492.37866211 C-491.74250977 444.85866211 -491.41250977 397.33866211 -491.07250977 348.37866211 C-492.72250977 348.04866211 -494.37250977 347.71866211 -496.07250977 347.37866211 C-498.04188538 346.58660889 -498.04188538 346.58660889 -499.95947266 345.63549805 C-501.05623573 345.09718102 -501.05623573 345.09718102 -502.17515564 344.54798889 C-502.95725906 344.1569548 -503.73936249 343.76592072 -504.54516602 343.36303711 C-505.78545311 342.75225563 -505.78545311 342.75225563 -507.05079651 342.12913513 C-508.82502642 341.25502375 -510.59803564 340.37843113 -512.36993408 339.49960327 C-517.03393054 337.18716577 -521.70745783 334.89417609 -526.38110352 332.60131836 C-527.30842285 332.14602249 -528.23574219 331.69072662 -529.19116211 331.22163391 C-536.6482923 327.56805584 -544.15055766 324.0302638 -551.69750977 320.56616211 C-561.7518945 315.94583134 -571.74054948 311.20439999 -581.69750977 306.37866211 C-582.3503595 306.06246918 -583.00320923 305.74627625 -583.67584229 305.42050171 C-586.72242323 303.94402368 -589.76631527 302.462467 -592.80712891 300.97412109 C-594.88500869 299.95887291 -596.96711463 298.95219595 -599.0546875 297.95703125 C-600.38028687 297.31689087 -600.38028687 297.31689087 -601.73266602 296.66381836 C-602.86393921 296.12446655 -602.86393921 296.12446655 -604.01806641 295.57421875 C-611.70595103 291.1003541 -615.83507285 282.69479933 -618.07250977 274.37866211 C-619.43340473 263.58700379 -617.41517255 255.11406346 -611.44750977 246.12866211 C-604.78287848 237.92477937 -593.80411977 234.2507557 -584.43969727 229.91772461 C-579.52521285 227.62149963 -574.67927116 225.1944175 -569.83250427 222.7598114 C-561.072956 218.36528718 -552.26775203 214.0640778 -543.46337891 209.76025391 C-540.51008589 208.31619933 -537.5578803 206.86993803 -534.60571289 205.42358398 C-509.1225756 192.95274916 -509.1225756 192.95274916 -499.61523438 188.90771484 C-495.9778933 187.3378253 -492.41151833 185.6498412 -488.85375977 183.90991211 C-488.19218872 183.5883313 -487.53061768 183.26675049 -486.84899902 182.9354248 C-484.75608385 181.91804063 -482.664172 180.89861948 -480.57250977 179.87866211 C-477.8129986 178.53304152 -475.05244752 177.18958844 -472.29125977 175.84741211 C-471.67126099 175.54420044 -471.05126221 175.24098877 -470.41247559 174.92858887 C-466.34782286 172.95312325 -462.22656081 171.15632699 -458.07250977 169.37866211 C-455.90548647 168.35399828 -453.74546595 167.31441665 -451.59204102 166.26147461 C-450.34835557 165.6554185 -449.10461965 165.04946595 -447.86083984 164.44360352 C-446.89061386 163.97002411 -446.89061386 163.97002411 -445.90078735 163.48687744 C-433.98728608 157.6759501 -422.02333375 151.99038986 -409.98779297 146.43579102 C-400.32308505 141.97161963 -390.69484666 137.43328794 -381.07250977 132.87866211 C-368.04797004 126.71580276 -354.99941383 120.60896064 -341.92407227 114.55444336 C-335.26877479 111.47250506 -328.62209896 108.37232805 -321.9770813 105.26831055 C-303.77628115 96.76649629 -285.55676464 88.30520028 -267.32641602 79.86694336 C-249.9766198 71.83521482 -232.63577909 63.78611452 -215.33081055 55.65820312 C-206.9638318 51.72905629 -198.585076 47.82623163 -190.19750977 43.94116211 C-179.71904573 39.08747197 -169.26696183 34.17997693 -158.82250977 29.25366211 C-149.26196737 24.74431925 -139.69202774 20.26127705 -130.07250977 15.87866211 C-120.03781712 11.30610345 -110.05073767 6.6353008 -100.07250977 1.94116211 C-98.96311035 1.41981689 -98.96311035 1.41981689 -97.83129883 0.88793945 C-95.70280986 -0.11266881 -93.57494208 -1.11457891 -91.44750977 -2.11743164 C-90.78178452 -2.43112198 -90.11605927 -2.74481232 -89.43016052 -3.06800842 C-86.08753507 -4.64867336 -82.77062864 -6.2660431 -79.48266602 -7.95727539 C-76.19044648 -9.56378801 -73.01444333 -10.75535786 -69.51000977 -11.80883789 C-68.4568457 -12.13239258 -67.40368164 -12.45594727 -66.31860352 -12.78930664 C-41.88539891 -19.05196919 -21.71142591 -10.54018804 0 0 Z M-80.47537231 21.77285767 C-84.12332427 23.58767647 -87.78424145 25.37605608 -91.44360352 27.16772461 C-92.54924904 27.71016563 -92.54924904 27.71016563 -93.67723083 28.26356506 C-100.28684059 31.50007056 -106.94926057 34.61510137 -113.63500977 37.69116211 C-125.15620726 43.00003166 -136.61975747 48.42387556 -148.07250977 53.87866211 C-160.60703684 59.84701087 -173.15823316 65.77206254 -185.76000977 71.59741211 C-194.88347922 75.81728381 -203.98028114 80.09205061 -213.07250977 84.37866211 C-231.98445049 93.29195951 -250.93354316 102.12220293 -269.94750977 110.81616211 C-293.80855058 121.73047449 -317.52998833 132.94274722 -341.25164795 144.1557312 C-349.35578972 147.9860141 -357.46305034 151.80965162 -365.57250977 155.62866211 C-366.27054718 155.95755432 -366.96858459 156.28644653 -367.68777466 156.62530518 C-375.1730948 160.15133163 -382.66543077 163.66097896 -390.17797852 167.12866211 C-390.82449371 167.4273822 -391.47100891 167.72610229 -392.13711548 168.03387451 C-395.16700364 169.43344038 -398.19837183 170.82947533 -401.23266602 172.21948242 C-407.7323039 175.20932548 -407.7323039 175.20932548 -414.02172852 178.60913086 C-416.72197956 180.17534561 -419.2799018 181.35761317 -422.19750977 182.44116211 C-424.83474939 183.45883566 -427.14420657 184.42168019 -429.57250977 185.87866211 C-432.00081297 187.33564403 -434.31027014 188.29848856 -436.94750977 189.31616211 C-439.97590091 190.49089201 -442.79267918 191.69890666 -445.57250977 193.37866211 C-449.10311667 195.5103493 -452.82656233 196.89829683 -456.66625977 198.37866211 C-459.32992312 199.48563909 -461.69384416 200.84775084 -464.15600586 202.33544922 C-466.19290739 203.44419829 -468.2227896 204.25267247 -470.39282227 205.07006836 C-476.57446404 207.50699693 -482.51103248 210.41896245 -488.4708252 213.34588623 C-491.90924764 215.03367113 -495.35378157 216.70885728 -498.79907227 218.38256836 C-499.49871094 218.72247803 -500.19834961 219.0623877 -500.91918945 219.41259766 C-507.51573478 222.60885398 -514.16285255 225.69127696 -520.82250977 228.75366211 C-533.18043719 234.44477772 -545.4216384 240.35990443 -557.64575195 246.33178711 C-566.33251849 250.57408595 -575.03016007 254.78506652 -583.83447266 258.7800293 C-588.49765313 260.86621908 -588.49765313 260.86621908 -592.07250977 264.37866211 C-592.48615309 267.61886813 -592.55180704 269.57328396 -590.86352539 272.41015625 C-588.74759456 274.73577651 -586.91215421 275.66674655 -584.04125977 276.93725586 C-583.01685791 277.3988208 -581.99245605 277.86038574 -580.93701172 278.3359375 C-579.27158325 279.06864868 -579.27158325 279.06864868 -577.57250977 279.81616211 C-575.20049093 280.88442288 -572.82942555 281.95480281 -570.45922852 283.02709961 C-569.54417793 283.43923454 -569.54417793 283.43923454 -568.61064148 283.85969543 C-562.14902872 286.77668361 -555.76469656 289.84957419 -549.38500977 292.94116211 C-547.12329211 294.03491438 -544.86157337 295.1286644 -542.59985352 296.22241211 C-541.50527832 296.7522168 -540.41070313 297.28202148 -539.28295898 297.82788086 C-534.34464274 300.21329415 -529.39648297 302.57795799 -524.44750977 304.94116211 C-506.80662707 313.37075208 -489.18339569 321.8365124 -471.57983398 330.34375 C-463.71168037 334.14583157 -455.83538805 337.93016343 -447.94750977 341.69116211 C-434.5606453 348.07899087 -421.22673422 354.57581999 -407.88851929 361.06440735 C-402.82646654 363.52666733 -397.76262161 365.98520184 -392.69750977 368.44116211 C-389.90575749 369.79515235 -387.11409813 371.14933397 -384.32250977 372.50366211 C-383.6296991 372.83975494 -382.93688843 373.17584778 -382.2230835 373.52212524 C-372.71754996 378.13489163 -363.22349429 382.77070495 -353.73657227 387.42163086 C-352.67756714 387.94063965 -351.61856201 388.45964844 -350.52746582 388.99438477 C-345.2825885 391.5650628 -340.03862618 394.13757864 -334.79614258 396.71313477 C-332.86485679 397.66029741 -330.93354298 398.60740292 -329.00219727 399.55444336 C-328.1317276 399.98291061 -327.26125793 400.41137787 -326.3644104 400.85282898 C-322.45740049 402.76682938 -318.54249872 404.63189643 -314.55786133 406.37915039 C-309.74935765 408.49338074 -305.06526581 410.82783525 -300.37719727 413.19506836 C-298.51889915 414.12853706 -296.66058138 415.06196663 -294.80224609 415.99536133 C-293.84492584 416.4771283 -292.88760559 416.95889526 -291.90127563 417.45526123 C-275.70543692 425.60262702 -259.49303743 433.69163579 -243.07250977 441.37866211 C-242.31131836 441.73524902 -241.55012695 442.09183594 -240.76586914 442.45922852 C-240.0162793 442.81033691 -239.26668945 443.16144531 -238.49438477 443.52319336 C-229.76467754 447.61295116 -221.10700798 451.81443995 -212.49926758 456.1550293 C-207.50575799 458.67288343 -202.50850411 461.18322094 -197.51000977 463.69116211 C-196.52524658 464.18769287 -195.5404834 464.68422363 -194.52587891 465.19580078 C-187.448396 468.74603439 -180.31981169 472.17584544 -173.17016602 475.57788086 C-160.42252036 481.64984871 -147.80814806 487.97612007 -135.19750977 494.32641602 C-123.52463565 500.2005203 -111.81311287 505.97165391 -100.01168823 511.58349609 C-92.0275225 515.38416913 -84.13215247 519.33557522 -76.27172852 523.38647461 C-66.8838071 528.15049443 -59.10578828 530.91844064 -48.51000977 530.94116211 C-47.63538086 530.97790039 -46.76075195 531.01463867 -45.85961914 531.05249023 C-32.20816499 531.14043804 -19.37767646 523.82430797 -7.51031494 517.71987915 C-4.01502334 515.92232042 -0.50545017 514.15292033 3.00170898 512.37866211 C3.69431824 512.02729691 4.38692749 511.6759317 5.1005249 511.31391907 C10.62587827 508.51539944 16.19829461 505.82827385 21.80249023 503.19116211 C32.93431218 497.93392082 43.925012 492.39997744 54.92749023 486.87866211 C66.54791986 481.04729865 78.16925863 475.24057466 89.93139648 469.69897461 C100.95590408 464.4708576 111.83261542 458.94087022 122.73724365 453.46865845 C133.64458708 447.996848 144.5619518 442.57051881 155.59936523 437.36499023 C165.51822081 432.66776785 175.30988503 427.71354156 185.10766602 422.77001953 C185.7724295 422.43552292 186.43719299 422.10102631 187.12210083 421.75639343 C188.93565931 420.84370805 190.74802281 419.92864927 192.56030273 419.01342773 C195.97479726 417.3556946 199.43921301 415.87363806 202.92749023 414.37866211 C205.22819485 413.26167269 207.51956937 412.12531257 209.80249023 410.97241211 C210.44831055 410.64760864 211.09413086 410.32280518 211.75952148 409.98815918 C214.47627983 408.62179529 217.1907231 407.25086595 219.9050293 405.87963867 C229.53714943 401.01816662 239.23000532 396.30082615 248.97085571 391.66099548 C258.78880069 386.97996998 268.55644195 382.19866654 278.31988525 377.40524292 C294.50717594 369.45933596 310.71295714 361.55814713 326.98510742 353.78735352 C332.72277198 351.04039662 338.44959723 348.27091937 344.17749023 345.50366211 C345.40584121 344.91031509 346.63419407 344.31697199 347.86254883 343.72363281 C349.71011777 342.83116152 351.55767153 341.93865886 353.40518188 341.04606628 C357.62027848 339.00970227 361.83618332 336.97501941 366.05249023 334.94116211 C377.55326458 329.39284757 389.05003276 323.83659728 400.53759766 318.26098633 C422.82101263 307.44560233 445.16567729 296.76871597 467.58525085 286.2383728 C468.94781648 285.59784332 470.30989256 284.95627136 471.67146301 284.31362915 C475.32931978 282.58899213 478.99638827 280.88843606 482.6784668 279.21606445 C483.84788315 278.67969612 483.84788315 278.67969612 485.04092407 278.13249207 C486.54180793 277.44448493 488.0457493 276.7630977 489.55307007 276.08930969 C493.02082127 274.49123559 494.7638041 273.62419131 496.92749023 270.37866211 C497.00654087 268.04666823 497.01547792 265.71033589 496.92749023 263.37866211 C485.28059485 257.52356252 473.58701223 251.76921597 461.86499023 246.06616211 C461.01364502 245.65168823 460.1622998 245.23721436 459.28515625 244.81018066 C442.17813859 236.48267104 425.05151795 228.20073289 407.79467773 220.18725586 C402.99086718 217.94879762 398.21043887 215.66125906 393.42749023 213.37866211 C387.35455394 210.48102873 381.27790428 207.59304054 375.17749023 204.75366211 C373.99541992 204.20323242 372.81334961 203.65280273 371.59545898 203.08569336 C369.69658451 202.20195667 367.79768515 201.31827385 365.89868164 200.43481445 C357.35124763 196.45313972 348.87552237 192.36764433 340.46606445 188.10205078 C336.14745575 185.93194721 331.79826943 184.08016311 327.28295898 182.37084961 C323.67855053 180.85257474 320.33527587 178.90724615 316.95874023 176.94116211 C314.49008369 175.66865874 312.1268581 174.6482136 309.54467773 173.65209961 C302.36137685 170.83705836 295.47941338 167.38735105 288.55249023 164.00366211 C287.20628218 163.34971541 285.85992868 162.69606802 284.51342773 162.04272461 C278.50977042 159.12506108 272.52543093 156.17917335 266.57592773 153.15209961 C263.18540806 151.44850683 259.81553026 149.88637784 256.27514648 148.52319336 C249.28368275 145.81749273 242.57930282 142.48097652 235.82299805 139.2434082 C222.75252037 132.98339198 209.64042092 126.83196821 196.42749023 120.87866211 C184.46936374 115.48640348 172.58714941 109.94802445 160.73999023 104.31616211 C159.93847534 103.93514343 159.13696045 103.55412476 158.31115723 103.16156006 C156.70650403 102.39863831 155.10185919 101.63569899 153.4972229 100.8727417 C152.71237518 100.49957825 151.92752747 100.12641479 151.11889648 99.74194336 C150.33993011 99.37151917 149.56096375 99.00109497 148.75839233 98.6194458 C141.24596847 95.04962791 133.71606073 91.51788108 126.17749023 88.00366211 C125.56420868 87.71769165 124.95092712 87.43172119 124.31906128 87.13708496 C117.03234462 83.7407759 109.73593283 80.36601464 102.43237305 77.00610352 C87.18872472 69.99307405 72.01838672 62.82913054 56.85110474 55.65296936 C34.98372331 45.30785777 13.09916061 34.99884508 -8.86547852 24.86157227 C-12.0521303 23.38808544 -15.2342648 21.9051419 -18.41625977 20.42163086 C-20.38479142 19.51100246 -22.35353008 18.60082137 -24.32250977 17.69116211 C-25.19746094 17.28075684 -26.07241211 16.87035156 -26.97387695 16.44750977 C-33.96654942 13.23647676 -40.52940939 11.10357365 -48.32250977 11.00366211 C-49.31766602 10.97530273 -50.31282227 10.94694336 -51.33813477 10.91772461 C-61.7774653 12.20626122 -71.16744733 17.13997713 -80.47537231 21.77285767 Z " fill="#0B0E1C" transform="translate(727.072509765625,166.621337890625)"/>
<path d="M0 0 C6.60278445 2.63140173 13.0408939 5.45972646 19.375 8.6875 C25.04248079 11.55045421 30.74461089 14.31830121 36.5 17 C42.76229372 19.91944757 48.95351483 22.95634897 55.12109375 26.0703125 C59.54496511 28.29533656 64.0035541 30.42594139 68.5 32.5 C75.58759063 35.77551422 82.56975848 39.24539897 89.54101562 42.76025391 C108.85079934 52.4956671 128.23823234 62.03122711 147.82470703 71.19824219 C155.74070045 74.90469069 163.57893128 78.74704421 171.38378906 82.68164062 C177.1065806 85.56546615 182.83324894 88.44153239 188.5625 91.3125 C189.2201535 91.6420871 189.87780701 91.97167419 190.5553894 92.31124878 C199.4468538 96.76356423 208.37376588 101.12309155 217.37084961 105.35888672 C224.06987775 108.5378706 230.69198153 111.8528003 237.3046875 115.20703125 C239.18259287 116.15678637 241.06052283 117.10649287 242.93847656 118.05615234 C245.75745672 119.48216295 248.57441321 120.91156462 251.38562012 122.35284424 C273.1838467 133.52815817 296.16419475 141.29795294 320.7109375 133.609375 C328.82073951 130.72367858 336.49573557 126.75641827 344.17779541 122.90475464 C349.25265957 120.36194362 354.35295144 117.87396215 359.4609375 115.3984375 C377.16502425 106.81236926 394.81501026 98.12609509 412.39852905 89.29574585 C422.16046518 84.39453912 431.9547774 79.58095644 441.82861328 74.90795898 C448.93549174 71.53585072 455.9725389 68.03430877 463 64.5 C470.75304192 60.60088201 478.52785812 56.76842158 486.375 53.0625 C498.00886738 47.55976565 509.49750319 41.77075306 521 36 C535.0010083 28.97750246 549.01776777 22.02072966 563.18603516 15.34082031 C566.5550735 13.73551417 569.90867103 12.0992719 573.26171875 10.4609375 C575.14217613 9.54487259 577.02283479 8.62922201 578.90353394 7.71365356 C580.70784653 6.83307268 582.5093556 5.9467547 584.31079102 5.06030273 C585.39932373 4.53122314 586.48785645 4.00214355 587.609375 3.45703125 C588.57842773 2.98241455 589.54748047 2.50779785 590.54589844 2.01879883 C593 1 593 1 596 1 C596.14030959 27.26058353 596.24603955 53.52111068 596.31087303 79.78199387 C596.34177969 91.97604674 596.38389953 104.16986638 596.45263672 116.36376953 C596.51253602 126.99493071 596.55117232 137.62592292 596.56453097 148.25724816 C596.57233682 153.88386727 596.59061626 159.51000312 596.63438034 165.13646698 C596.6752875 170.43889517 596.68763243 175.74064379 596.67864609 181.0432148 C596.68028864 182.98295606 596.69211514 184.92272147 596.71523285 186.86232567 C596.94915959 207.51240726 589.17402517 218.82122103 574.875 233.5 C564.03122322 244.31824324 551.2842188 252.50547249 538 260 C537.37496582 260.35771484 536.74993164 260.71542969 536.10595703 261.08398438 C484.04741767 290.66481215 422.23278293 303.99616153 363.19616699 309.77996826 C361.04651283 309.99533993 358.8987175 310.22389667 356.75097656 310.45751953 C310.8238205 315.43023951 264.88644858 313.54181121 219.125 307.9375 C218.12240143 307.81477722 218.12240143 307.81477722 217.09954834 307.6895752 C210.98622298 306.92901104 204.99086543 306.13025196 199.04541016 304.50268555 C196.47692108 303.87144671 193.89983505 303.45096822 191.2890625 303.02734375 C177.66553146 300.81335223 164.38889019 298.00981965 151.0625 294.4375 C150.3536969 294.24799774 149.6448938 294.05849548 148.91461182 293.86325073 C137.13075718 290.69715045 125.38205689 287.42247609 114 283 C112.49040478 282.44567448 110.97993378 281.89373008 109.46875 281.34375 C76.21070263 269.08018084 43.27268453 253.40933981 18 228 C17.08347656 227.08347656 16.16695313 226.16695312 15.22265625 225.22265625 C6.49599732 216.07606787 -0.16850702 206.84574345 -0.12025452 193.97053528 C-0.12110894 193.14309443 -0.12196337 192.31565358 -0.12284368 191.46313876 C-0.12449536 188.68088908 -0.11898218 185.89869923 -0.11352539 183.11645508 C-0.11324343 181.12589011 -0.11340143 179.13532504 -0.1139679 177.14476013 C-0.11425551 171.7318782 -0.10836461 166.31901831 -0.10139394 160.90614152 C-0.09515439 155.2526703 -0.09455612 149.59919862 -0.09336853 143.94572449 C-0.09025699 133.236031 -0.08204598 122.52634768 -0.07201904 111.81665868 C-0.06085241 99.62577042 -0.05534606 87.43488168 -0.05032361 75.24398959 C-0.03986324 50.16265408 -0.02226721 25.08132761 0 0 Z " fill="#7E58F5" transform="translate(381,586)"/>
<path d="M0 0 C9.24 0 18.48 0 28 0 C34.37717133 15.3052112 37.43370355 29.32433688 39.55078125 45.58496094 C40.07109967 49.54051205 40.61271087 53.49289839 41.15625 57.4453125 C44.97883454 85.30629867 48.52333538 113.19656779 51.67529297 141.14208984 C51.98673841 143.88327808 52.30653246 146.62335945 52.62890625 149.36328125 C52.8152155 150.97134127 53.00142092 152.57941333 53.1875 154.1875 C53.31342529 155.2381665 53.31342529 155.2381665 53.44189453 156.31005859 C53.92650041 160.56056498 54.07210347 164.72370983 54 169 C44.74867997 166.55746332 36.2305996 162.72898128 27.54492188 158.76367188 C19.89931982 155.40498804 14.21278409 153.18006324 6.12524414 156.00366211 C2.88782523 157.34902047 -0.2731504 158.80358284 -3.4375 160.3125 C-10.8566214 163.78251755 -18.06021478 166.92484148 -26 169 C-25.40733204 159.11377556 -24.60672156 149.28110337 -23.5 139.4375 C-23.42029968 138.72443695 -23.34059937 138.0113739 -23.25848389 137.27670288 C-21.38642537 120.6422337 -19.30690306 104.03133102 -17.20678711 87.42434692 C-16.82466133 84.40174616 -16.44630998 81.37871461 -16.0715332 78.35519409 C-14.06195654 62.17598307 -11.81377725 46.06585389 -8.9609375 30.01171875 C-8.84230976 29.32790445 -8.72368202 28.64409016 -8.6014595 27.93955421 C-6.8731229 18.05458548 -4.4972451 8.9944902 0 0 Z " fill="#7D57F3" transform="translate(236,760)"/>
<path d="M0 0 C6.32775857 3.66947449 11.38862106 8.93236567 13.5625 16 C14.5276136 25.45811332 14.51381953 34.10999305 8.5625 42 C3.48666651 47.77807259 -2.13805966 50.49146405 -9.70703125 51.38671875 C-18.16514404 51.79908611 -23.98018311 50.6055496 -30.4375 45 C-35.39304034 39.98909049 -38.68779786 35.07446199 -39.4375 28 C-39.55931641 26.91912109 -39.55931641 26.91912109 -39.68359375 25.81640625 C-40.11219349 18.32240482 -37.38230899 12.80916854 -33.1875 6.75 C-24.29768909 -2.13981091 -11.85637809 -5.43569334 0 0 Z " fill="#7D57F2" transform="translate(262.4375,685)"/>
<path d="M0 0 C2 2 2 2 2.23046875 5.51953125 C2.22647511 6.95058694 2.21170861 8.38164352 2.1875 9.8125 C2.18685547 10.52470703 2.18621094 11.23691406 2.18554688 11.97070312 C2.15395907 15.76474979 1.90568676 19.31204349 1 23 C-1.04762755 19.92855867 -1.2500695 19.30149041 -1.23046875 15.83984375 C-1.22853516 15.04642578 -1.22660156 14.25300781 -1.22460938 13.43554688 C-1.21236328 12.61119141 -1.20011719 11.78683594 -1.1875 10.9375 C-1.18685547 10.10927734 -1.18621094 9.28105469 -1.18554688 8.42773438 C-1.14053468 2.28106936 -1.14053468 2.28106936 0 0 Z " fill="#161824" transform="translate(299,700)"/>
<path d="M0 0 C0.33 0 0.66 0 1 0 C1.33970765 2.49927769 1.67188032 4.99919595 2 7.5 C2.09539062 8.19609375 2.19078125 8.8921875 2.2890625 9.609375 C2.9161622 14.44700129 3.08789528 19.12181196 3 24 C2.67 24 2.34 24 2 24 C2 22.02 2 20.04 2 18 C1.01 17.67 0.02 17.34 -1 17 C-1.07427838 13.65747276 -1.06546953 11.1964086 0 8 C0.06665376 6.60560336 0.08538199 5.20830125 0.0625 3.8125 C0.041875 2.554375 0.02125 1.29625 0 0 Z " fill="#4D4D57" transform="translate(307,861)"/>
<path d="M0 0 C0.33 0 0.66 0 1 0 C1.33 5.61 1.66 11.22 2 17 C-0.64 16.34 -3.28 15.68 -6 15 C-4.68 14.67 -3.36 14.34 -2 14 C-0.12175109 12.12175109 -0.60897603 8.96064724 -0.4375 6.4375 C-0.35371094 5.23996094 -0.26992188 4.04242187 -0.18359375 2.80859375 C-0.12300781 1.88175781 -0.06242187 0.95492187 0 0 Z " fill="#6047BF" transform="translate(288,912)"/>
<path d="M0 0 C1.18613892 0.07069702 1.18613892 0.07069702 2.39624023 0.14282227 C3.67724609 0.21533203 3.67724609 0.21533203 4.98413086 0.28930664 C5.88196289 0.34538086 6.77979492 0.40145508 7.70483398 0.45922852 C8.6065332 0.51143555 9.50823242 0.56364258 10.43725586 0.61743164 C12.67259948 0.74753101 14.90754288 0.88250788 17.14233398 1.02172852 C17.14233398 1.35172852 17.14233398 1.68172852 17.14233398 2.02172852 C16.10592773 2.07071289 15.06952148 2.11969727 14.00170898 2.17016602 C12.6318919 2.24522449 11.2621015 2.32077098 9.89233398 2.39672852 C9.21041992 2.42766602 8.52850586 2.45860352 7.82592773 2.49047852 C4.1549436 2.70432225 1.27981783 3.03249907 -1.85766602 5.02172852 C-2.42016602 3.08422852 -2.42016602 3.08422852 -2.85766602 1.02172852 C-1.85766602 0.02172852 -1.85766602 0.02172852 0 0 Z " fill="#5C45BB" transform="translate(237.857666015625,759.978271484375)"/>
<path d="M0 0 C0 0.99 0 1.98 0 3 C-1.74468372 3.70088156 -3.49601161 4.38524009 -5.25 5.0625 C-6.22453125 5.44535156 -7.1990625 5.82820313 -8.203125 6.22265625 C-11.04007395 7.01113787 -12.29409552 7.02437812 -15 6 C-12.87717331 4.99539469 -10.75166979 3.99644398 -8.625 3 C-7.44164062 2.443125 -6.25828125 1.88625 -5.0390625 1.3125 C-2 0 -2 0 0 0 Z " fill="#2A2C35" transform="translate(187,376)"/>
<path d="M0 0 C-0.33 0.99 -0.66 1.98 -1 3 C-2.32 3 -3.64 3 -5 3 C-5 3.66 -5 4.32 -5 5 C-7.64 5.33 -10.28 5.66 -13 6 C-9.09130466 2.84297684 -5.1385061 0 0 0 Z " fill="#7152DC" transform="translate(220,390)"/>
<path d="M0 0 C0.66 0.33 1.32 0.66 2 1 C0.67753846 3.64492308 -0.64535898 3.97833787 -3.3125 5.1875 C-4.09238281 5.55230469 -4.87226562 5.91710937 -5.67578125 6.29296875 C-8.2566562 7.07807525 -9.49663962 6.89937661 -12 6 C-10.04669132 4.96958487 -8.08718472 3.9509107 -6.125 2.9375 C-5.03445313 2.36902344 -3.94390625 1.80054688 -2.8203125 1.21484375 C-1.42425781 0.61349609 -1.42425781 0.61349609 0 0 Z " fill="#171438" transform="translate(1028,532)"/>
<path d="M0 0 C0.66 0.33 1.32 0.66 2 1 C-0.69728168 4.33193619 -4.02060187 5.60371996 -8 7 C-10.22265625 6.578125 -10.22265625 6.578125 -12 6 C-10.04669132 4.96958487 -8.08718472 3.9509107 -6.125 2.9375 C-5.03445313 2.36902344 -3.94390625 1.80054688 -2.8203125 1.21484375 C-1.42425781 0.61349609 -1.42425781 0.61349609 0 0 Z " fill="#2A2C37" transform="translate(379,284)"/>
<path d="M0 0 C0.33 0.99 0.66 1.98 1 3 C-1.64 4.98 -4.28 6.96 -7 9 C-7.66 8.67 -8.32 8.34 -9 8 C-6.03 5.36 -3.06 2.72 0 0 Z " fill="#21242E" transform="translate(219,667)"/>
<path d="M0 0 C7.37297297 2.34594595 7.37297297 2.34594595 10 4 C10.33 4.99 10.66 5.98 11 7 C3.62702703 4.65405405 3.62702703 4.65405405 1 3 C0.67 2.01 0.34 1.02 0 0 Z " fill="#181437" transform="translate(441,613)"/>
<path d="M0 0 C7.37297297 2.34594595 7.37297297 2.34594595 10 4 C10.33 4.99 10.66 5.98 11 7 C3.62702703 4.65405405 3.62702703 4.65405405 1 3 C0.67 2.01 0.34 1.02 0 0 Z " fill="#191437" transform="translate(1153,394)"/>
<path d="M0 0 C-1.24176695 0.70226141 -2.49385599 1.38629109 -3.75 2.0625 C-4.79414062 2.63677734 -4.79414062 2.63677734 -5.859375 3.22265625 C-8.36140628 4.1312406 -9.5332355 3.88336837 -12 3 C-10.75823305 2.29773859 -9.50614401 1.61370891 -8.25 0.9375 C-7.20585938 0.36322266 -7.20585938 0.36322266 -6.140625 -0.22265625 C-3.63859372 -1.1312406 -2.4667645 -0.88336837 0 0 Z " fill="#161334" transform="translate(1065,517)"/>
<path d="M0 0 C6.64615385 1.47692308 6.64615385 1.47692308 8.4375 4.125 C8.7159375 5.053125 8.7159375 5.053125 9 6 C2.42696629 4.1011236 2.42696629 4.1011236 0 1 C0 0.67 0 0.34 0 0 Z " fill="#1B1738" transform="translate(486,635)"/>
<path d="M0 0 C3.40312738 1.05875074 6.01353231 2.00902154 9 4 C9 4.66 9 5.32 9 6 C2.42696629 4.1011236 2.42696629 4.1011236 0 1 C0 0.67 0 0.34 0 0 Z " fill="#171437" transform="translate(410,598)"/>
<path d="M0 0 C3.40312738 1.05875074 6.01353231 2.00902154 9 4 C9 4.66 9 5.32 9 6 C2.42696629 4.1011236 2.42696629 4.1011236 0 1 C0 0.67 0 0.34 0 0 Z " fill="#161332" transform="translate(1205,419)"/>
<path d="M0 0 C0 0.66 0 1.32 0 2 C-6.96428571 5.34821429 -6.96428571 5.34821429 -11 4 C-9.73308493 3.32591692 -8.46129251 2.66099503 -7.1875 2 C-6.47980469 1.62875 -5.77210938 1.2575 -5.04296875 0.875 C-3 0 -3 0 0 0 Z " fill="#6E53D2" transform="translate(294,355)"/>
<path d="M0 0 C0 0.66 0 1.32 0 2 C-6.96428571 5.34821429 -6.96428571 5.34821429 -11 4 C-9.73308493 3.32591692 -8.46129251 2.66099503 -7.1875 2 C-6.47980469 1.62875 -5.77210938 1.2575 -5.04296875 0.875 C-3 0 -3 0 0 0 Z " fill="#2E3039" transform="translate(265,339)"/>
<path d="M0 0 C1.53224072 2.43355879 2.03344238 3.65721564 1.75 6.5625 C1 9 1 9 -1 12 C-1.14285714 3.42857143 -1.14285714 3.42857143 0 0 Z " fill="#34363F" transform="translate(197,823)"/>
<path d="M0 0 C0 0.99 0 1.98 0 3 C-3.80504787 4.79682816 -4.70600835 5.07349791 -9 4 C-6.03 2.68 -3.06 1.36 0 0 Z " fill="#7051D8" transform="translate(860,643)"/>
<path d="M0 0 C2.35981813 0.93578995 4.69631264 1.93347808 7 3 C6.67 3.66 6.34 4.32 6 5 C2.31245243 4.50168276 0.39509338 3.89932357 -2 1 C-1.34 0.67 -0.68 0.34 0 0 Z " fill="#141626" transform="translate(1222,400)"/>
<path d="M0 0 C3.96 1.98 3.96 1.98 8 4 C8 4.66 8 5.32 8 6 C2.25 4.125 2.25 4.125 0 3 C0 2.01 0 1.02 0 0 Z " fill="#171433" transform="translate(728,194)"/>
<path d="M0 0 C0.66 0.33 1.32 0.66 2 1 C-1.32307692 5.8 -1.32307692 5.8 -4.75 6.8125 C-5.4925 6.874375 -6.235 6.93625 -7 7 C-4.66666667 4.66666667 -2.33333333 2.33333333 0 0 Z " fill="#E3E3E6" transform="translate(965,844)"/>
<path d="M0 0 C0.33 0.99 0.66 1.98 1 3 C-0.21484375 4.82421875 -0.21484375 4.82421875 -1.9375 6.6875 C-2.50339844 7.31011719 -3.06929688 7.93273437 -3.65234375 8.57421875 C-4.09707031 9.04472656 -4.54179687 9.51523437 -5 10 C-5.66 9.67 -6.32 9.34 -7 9 C-4.69 6.03 -2.38 3.06 0 0 Z " fill="#DCDCE0" transform="translate(293,737)"/>
<path d="M0 0 C3.37462715 0.54723683 5.08235 1.0549 8 3 C8 3.66 8 4.32 8 5 C2.25 3.125 2.25 3.125 0 2 C0 1.34 0 0.68 0 0 Z " fill="#151231" transform="translate(475,630)"/>
<path d="M0 0 C3.34373475 0.55728913 6.03312999 1.35173889 9 3 C9 3.66 9 4.32 9 5 C6.03 4.01 3.06 3.02 0 2 C0 1.34 0 0.68 0 0 Z " fill="#14112D" transform="translate(1018,331)"/>
<path d="M0 0 C0.66 0.33 1.32 0.66 2 1 C-0.06756277 3.7972908 -1.14440371 4.02692273 -4.6875 4.6875 C-5.780625 4.790625 -6.87375 4.89375 -8 5 C-5.45378681 2.99940392 -3.01962385 1.20784954 0 0 Z " fill="#383A43" transform="translate(283,329)"/>
<path d="M0 0 C0.66 0.33 1.32 0.66 2 1 C-0.06756277 3.7972908 -1.14440371 4.02692273 -4.6875 4.6875 C-5.780625 4.790625 -6.87375 4.89375 -8 5 C-5.45378681 2.99940392 -3.01962385 1.20784954 0 0 Z " fill="#6D51D4" transform="translate(355,325)"/>
<path d="M0 0 C-0.33 0.66 -0.66 1.32 -1 2 C-3.9375 2.75 -3.9375 2.75 -7 3 C-7.66 2.34 -8.32 1.68 -9 1 C-5.57367167 -0.61798838 -3.61944899 -1.34053666 0 0 Z " fill="#23252F" transform="translate(660,156)"/>
<path d="M0 0 C0 0.99 0 1.98 0 3 C-2.70879335 4.35439668 -5.00933268 4.06501451 -8 4 C-2.7826087 0 -2.7826087 0 0 0 Z " fill="#24262E" transform="translate(166,386)"/>
<path d="M0 0 C0 0.99 0 1.98 0 3 C-2.70879335 4.35439668 -5.00933268 4.06501451 -8 4 C-2.7826087 0 -2.7826087 0 0 0 Z " fill="#1F212D" transform="translate(628,169)"/>
<path d="M0 0 C0.33 0 0.66 0 1 0 C2.12029814 5.48946087 1.79217969 8.83430559 0 14 C-0.33 14 -0.66 14 -1 14 C-1.08333357 9.1666528 -0.95261487 4.76307437 0 0 Z " fill="#6447C2" transform="translate(219,848)"/>
<path d="M0 0 C0 0.66 0 1.32 0 2 C-1.32 2 -2.64 2 -4 2 C-4 2.66 -4 3.32 -4 4 C-4.99 4.33 -5.98 4.66 -7 5 C-7.66 4.34 -8.32 3.68 -9 3 C-3.375 0 -3.375 0 0 0 Z " fill="#1F1943" transform="translate(1004,545)"/>
<path d="M0 0 C2.35981813 0.93578995 4.69631264 1.93347808 7 3 C6.67 3.66 6.34 4.32 6 5 C3.0280615 3.87548273 0.66559313 2.77706209 -2 1 C-1.34 0.67 -0.68 0.34 0 0 Z " fill="#121421" transform="translate(751,178)"/>
</svg>
